<?xml version="1.0" standalone="no"?>
<!DOCTYPE svg PUBLIC "-//W3C//DTD SVG 20010904//EN"
 "http://www.w3.org/TR/2001/REC-SVG-20010904/DTD/svg10.dtd">
<svg version="1.0" xmlns="http://www.w3.org/2000/svg"
 width="700.000000pt" height="700.000000pt" viewBox="0 0 700.000000 700.000000"
 preserveAspectRatio="xMidYMid meet">
<metadata>
Created by potrace 1.14, written by Peter Selinger 2001-2017
</metadata>
<g transform="translate(0.000000,700.000000) scale(0.100000,-0.100000)"
fill="#000000" stroke="none">
<path d="M1711 5524 c-93 -29 -131 -115 -100 -226 14 -52 41 -77 134 -128 91
-49 118 -73 137 -127 19 -55 19 -2903 0 -2979 -18 -71 -57 -109 -162 -163 -87
-44 -120 -94 -120 -182 0 -84 43 -133 134 -154 58 -13 1220 -13 1296 -1 67 11
96 30 114 76 43 107 5 203 -95 246 -100 43 -144 71 -159 99 -13 26 -15 118
-15 643 0 338 2 615 5 617 3 1 64 6 135 9 72 3 141 8 155 10 14 2 52 7 85 11
111 13 130 15 155 20 14 3 43 7 65 11 22 3 48 7 57 10 19 6 45 -31 165 -231
219 -366 406 -778 441 -972 12 -70 6 -132 -17 -163 -10 -14 -43 -40 -74 -58
-65 -37 -91 -71 -107 -134 -11 -44 -3 -105 17 -133 19 -26 73 -54 118 -62 62
-11 1203 -10 1265 1 25 5 57 15 72 22 75 39 84 188 16 261 -12 14 -57 45 -99
69 -42 24 -83 52 -92 62 -9 9 -68 150 -132 312 -230 585 -337 818 -555 1205
-65 116 -65 118 -51 123 7 2 63 30 125 61 284 144 460 337 549 602 14 41 28
95 31 119 4 25 9 57 12 72 8 41 8 214 0 278 -50 382 -289 621 -726 724 -107
25 -132 30 -230 41 -30 4 -66 9 -80 13 -14 3 -565 6 -1225 8 -993 2 -1207 0
-1244 -12z m1949 -398 c19 -4 51 -9 70 -13 19 -3 44 -8 55 -10 44 -8 153 -46
200 -72 203 -106 295 -336 249 -621 -35 -218 -163 -380 -389 -493 -71 -36
-231 -92 -287 -102 -17 -3 -34 -8 -38 -10 -4 -2 -22 -7 -41 -10 -19 -3 -56
-10 -84 -15 -27 -5 -72 -12 -100 -16 -27 -3 -59 -8 -70 -10 -34 -7 -186 -17
-270 -18 l-80 -1 -1 574 c0 316 3 597 9 625 18 99 92 167 199 183 24 3 66 9
93 13 57 8 431 5 485 -4z"/>
</g>
</svg>
